# xmcd
#
# Track frame offsets: 
#        150
#        23750
#        49780
#        66475
#        84242
#        114287
#        135025
#        152882
#        170370
#        187827
#        209850
#        233117
#        253750
#        277287
#        289225
#        316230
#
# Disc length: 4569 seconds
#
# Revision: 1
# Processed by: cddbd v1.5.2PL0 Copyright (c) Steve Scherf et al.
# Submitted via: ExactAudioCopy v1.1
#
DISCID=e311d710
DTITLE=Various Artist - Handel's Messiah: A Soulful Celebration
DYEAR=1992
DGENRE=Blues
TTITLE0=Mervyn Warren - Overture: A Partial History of Black Music
TTITLE1=Vanessa Bell Armstrong - Comfort Ye My People
TTITLE2=Chris Willis - Every Valley Shall Be Exalted
TTITLE3=Dianne Reeves - And the Glory of the Lord
TTITLE4=Patti Austin - But Who May Abide the Day of His Coming?
TTITLE5=Tramaine Hawkins - And He Shall Purify
TTITLE6=Howard Hewett - Behold, A Virgin Shall Conceive
TTITLE7=Stevie Wonder - O Thou That Tellest Good Tidings to Zion
TTITLE8=Sounds of Blackness - For Unto Us a Child Is Born
TTITLE9=Michelle Weeks - Glory to God
TTITLE10=Richard Smallwood Singers, The - Rejoice Greatly, O Daughter 
TTITLE10=of Zion
TTITLE11=Yellowjackets - Behold, The Lamb of God
TTITLE12=Commissioned - Lift Up Your Heads, O Ye Gates
TTITLE13=Al Jarreau - Why Do the Nations So Furiously Rage?
TTITLE14=Tevin Campbell - I Know That My Redeemer Liveth
TTITLE15=Quincy Jones - Hallelujah!
EXTD=
EXTT0=
EXTT1=
EXTT2=
EXTT3=
EXTT4=
EXTT5=
EXTT6=
EXTT7=
EXTT8=
EXTT9=
EXTT10=
EXTT11=
EXTT12=
EXTT13=
EXTT14=
EXTT15=
PLAYORDER=
